<svg xmlns="http://www.w3.org/2000/svg" width="772" height="250" viewBox="0 0 1544 500" role="img" aria-label="Replacely — bulk find and replace by URL">
	<defs>
		<linearGradient id="rpl-bbg" x1="0" y1="0" x2="1" y2="1">
			<stop offset="0" stop-color="#2779bb"/>
			<stop offset="0.5" stop-color="#155e96"/>
			<stop offset="1" stop-color="#0c466f"/>
		</linearGradient>
		<filter id="rpl-bshadow" x="-30%" y="-30%" width="160%" height="160%">
			<feDropShadow dx="0" dy="8" stdDeviation="10" flood-color="#062f50" flood-opacity="0.35"/>
		</filter>
	</defs>

	<rect x="0" y="0" width="1544" height="500" fill="url(#rpl-bbg)"/>

	<g fill="#ffffff">
		<circle cx="1430" cy="60" r="210" opacity="0.05"/>
		<circle cx="90" cy="470" r="150" opacity="0.05"/>
	</g>

	<g fill="none" stroke="#ffffff" stroke-linecap="round" opacity="0.06">
		<circle cx="1350" cy="225" r="140" stroke-width="30"/>
		<path d="M1452 327 L1500 375" stroke-width="40"/>
	</g>

	<g fill="none" stroke="#ffffff" stroke-linecap="round" stroke-linejoin="round" filter="url(#rpl-bshadow)">
		<circle cx="250" cy="235" r="95" fill="#ffffff" fill-opacity="0.06" stroke-width="22"/>
		<path d="M312 297 L374 359" stroke-width="34"/>
		<path d="M192 211 L286 211 M272 194 L296 211 L272 228" stroke-width="16"/>
		<path d="M308 259 L214 259 M228 242 L204 259 L228 276" stroke-width="16"/>
	</g>

	<g font-family="'Segoe UI', Roboto, 'Helvetica Neue', Helvetica, Arial, sans-serif">
		<text x="470" y="232" font-size="122" font-weight="800" letter-spacing="-1" fill="#ffffff">Replacely</text>
		<text x="474" y="298" font-size="34" font-weight="500" fill="#d6e8fb">Bulk find &amp; replace by URL &#8212; every major editor &amp; builder.</text>
		<rect x="474" y="340" width="300" height="58" rx="29" fill="#ffffff" fill-opacity="0.12" stroke="#ffffff" stroke-opacity="0.4" stroke-width="1.5"/>
		<text x="624" y="378" font-size="27" font-weight="600" fill="#ffffff" text-anchor="middle">Dry-run preview</text>
		<rect x="794" y="340" width="210" height="58" rx="29" fill="#ffffff" fill-opacity="0.12" stroke="#ffffff" stroke-opacity="0.4" stroke-width="1.5"/>
		<text x="899" y="378" font-size="27" font-weight="600" fill="#ffffff" text-anchor="middle">CSV export</text>
		<rect x="1024" y="340" width="300" height="58" rx="29" fill="#ffffff" fill-opacity="0.12" stroke="#ffffff" stroke-opacity="0.4" stroke-width="1.5"/>
		<text x="1174" y="378" font-size="27" font-weight="600" fill="#ffffff" text-anchor="middle">Activity log</text>
	</g>
</svg>
